<?xml version="1.0" encoding="UTF-8" standalone="no"?>
<svg
   xmlns:dc="http://purl.org/dc/elements/1.1/"
   xmlns:cc="http://creativecommons.org/ns#"
   xmlns:rdf="http://www.w3.org/1999/02/22-rdf-syntax-ns#"
   xmlns:svg="http://www.w3.org/2000/svg"
   xmlns="http://www.w3.org/2000/svg"
   width="210mm"
   height="297mm"
   viewBox="0 0 210 297"
   version="1.1"
   id="svg8">
  <defs
     id="defs2" />
  <metadata
     id="metadata5">
    <rdf:RDF>
      <cc:Work
         rdf:about="">
        <dc:format>image/svg+xml</dc:format>
        <dc:type
           rdf:resource="http://purl.org/dc/dcmitype/StillImage" />
        <dc:title></dc:title>
      </cc:Work>
    </rdf:RDF>
  </metadata>
  <g
     id="layer1">
    <g
       transform="matrix(0.35277777,0,0,-0.35277777,82.569047,58.046668)"
       id="g42"
       style="opacity:1;stop-opacity:1">
      <g
         id="g44">
        <g
           id="g46">
          <path
             d="m 38.53511,14.17339 h -77.07022 c -2.20094,0 -3.98511,-1.78417 -3.98511,-3.98511 v -20.37656 c 0,-2.20094 1.78417,-3.98511 3.98511,-3.98511 h 77.07022 c 2.20094,0 3.98511,1.78417 3.98511,3.98511 v 20.37656 c 0,2.20094 -1.78417,3.98511 -3.98511,3.98511 z"
             style="fill:#edcccc;fill-opacity:1;fill-rule:nonzero;stroke:#a70002;stroke-width:0.3985;stroke-linecap:butt;stroke-linejoin:miter;stroke-miterlimit:10;stroke-dasharray:none;stroke-opacity:1"
             id="path48" />
        </g>
        <g
           id="g50"
           transform="translate(-13.495,-3.422)">
          <g
             id="g52">
            <g
               id="g54"
               transform="translate(-82.105,-446.11)">
              <text
                 transform="matrix(1,0,0,-1,82.105,446.11)"
                 style="font-variant:normal;font-weight:normal;font-size:9.96264px;font-family:LMRoman10;-inkscape-font-specification:LMRoman10-Regular;writing-mode:lr-tb;fill:#000000;fill-opacity:1;fill-rule:nonzero;stroke:none"
                 id="text58"><tspan
                   x="0 7.6114569 12.034869 17.574097 23.113325"
                   y="0"
                   id="tspan56">Début</tspan></text>
              <g
                 id="g60"
                 transform="translate(82.105,446.11)" />
            </g>
          </g>
          <g
             id="g62"
             transform="translate(13.495,3.422)" />
        </g>
      </g>
      <g
         id="g64">
        <g
           id="g66">
          <path
             d="m -60.01419,-75.4266 h 120.0284 v 37.46594 h -120.0284 z"
             style="fill:#e6e6e6;fill-opacity:1;fill-rule:nonzero;stroke:#000000;stroke-width:0.3985;stroke-linecap:butt;stroke-linejoin:miter;stroke-miterlimit:10;stroke-dasharray:none;stroke-opacity:1"
             id="path68" />
        </g>
        <g
           id="g70"
           transform="translate(-56.693,-48.085)">
          <g
             id="g72"
             transform="translate(17.324)">
            <g
               id="g74"
               transform="translate(-56.231,-401.447)">
              <text
                 transform="matrix(1,0,0,-1,56.231,401.447)"
                 style="font-variant:normal;font-weight:normal;font-size:9.96264px;font-family:LMRoman10;-inkscape-font-specification:LMRoman10-Regular;writing-mode:lr-tb;fill:#000000;fill-opacity:1;fill-rule:nonzero;stroke:none"
                 id="text78"><tspan
                   x="0 3.596513 9.1357412 13.061021 16.936487 20.841843 26.381071 30.804483 34.679951 37.449562 42.430885 47.970112 55.212952 59.925278 64.627647 69.608963 74.86924"
                   y="0"
                   id="tspan76">Instructionsavant</tspan></text>
              <text
                 transform="matrix(1,0,0,-1,57.061,389.492)"
                 style="font-variant:normal;font-weight:normal;font-size:9.96264px;font-family:LMRoman10;-inkscape-font-specification:LMRoman10-Regular;writing-mode:lr-tb;fill:#000000;fill-opacity:1;fill-rule:nonzero;stroke:none"
                 id="text82"><tspan
                   x="0 2.769614 11.068493 14.993773 18.86924 22.774595 28.313824 32.737236 36.612701 42.151928 46.057285 53.798256 56.567871 60.443336 64.866753 68.772102 73.753426"
                   y="0"
                   id="tspan80">lastructureitéra-</tspan></text>
              <text
                 transform="matrix(1,0,0,-1,55.743,377.536)"
                 style="font-variant:normal;font-weight:normal;font-size:9.96264px;font-family:LMRoman10;-inkscape-font-specification:LMRoman10-Regular;writing-mode:lr-tb;fill:#000000;fill-opacity:1;fill-rule:nonzero;stroke:none"
                 id="text86"><tspan
                   x="0 3.8754671 6.645081 11.626401 19.367373 23.790785 28.772104 34.311333 39.850559 42.620174 46.49564 49.265255 54.246574 59.785801 65.325027 69.748444 72.518059 75.287674"
                   y="0"
                   id="tspan84">tiveconditionnelle</tspan></text>
              <g
                 id="g88"
                 transform="translate(38.907,401.447)" />
            </g>
          </g>
          <g
             id="g90"
             transform="translate(56.693,48.085)" />
        </g>
      </g>
      <g
         id="g92">
        <g
           id="g94">
          <path
             d="m -60.01419,-127.56065 h 120.0284 v 28.34679 h -120.0284 z"
             style="fill:#cedbe3;fill-opacity:1;fill-rule:nonzero;stroke:#0c4c74;stroke-width:0.3985;stroke-linecap:butt;stroke-linejoin:miter;stroke-miterlimit:10;stroke-dasharray:none;stroke-opacity:1"
             id="path96" />
        </g>
        <g
           id="g98"
           transform="translate(-56.693,-109.899)">
          <g
             id="g100"
             transform="translate(13.882)">
            <g
               id="g102"
               transform="translate(-52.789,-339.633)">
              <text
                 transform="matrix(1,0,0,-1,52.789,339.633)"
                 style="font-variant:normal;font-weight:normal;font-size:9.96264px;font-family:LMRoman10;-inkscape-font-specification:LMRoman10-Regular;writing-mode:lr-tb;fill:#000000;fill-opacity:1;fill-rule:nonzero;stroke:none"
                 id="text106"><tspan
                   x="0 3.596513 9.1357412 13.061021 16.936487 20.841843 26.381071 30.804483 34.679951 37.449562 42.430885 51.28767 56.826897 59.596512 62.366127 67.905357 70.674965 74.550438 77.320045 82.301369"
                   y="0"
                   id="tspan104">Instructiond’initia-</tspan></text>
              <text
                 transform="matrix(1,0,0,-1,50.441,327.678)"
                 style="font-variant:normal;font-weight:normal;font-size:9.96264px;font-family:LMRoman10;-inkscape-font-specification:LMRoman10-Regular;writing-mode:lr-tb;fill:#000000;fill-opacity:1;fill-rule:nonzero;stroke:none"
                 id="text110"><tspan
                   x="0 2.769614 5.539228 9.4645081 14.445828 18.321295 21.090908 26.072229 34.929016 40.468243 49.325031 53.748444 58.729763 67.028641 72.567871 76.443336 80.866753 86.405975"
                   y="0"
                   id="tspan108">lisationducompteur</tspan></text>
              <g
                 id="g112"
                 transform="translate(38.907,339.633)" />
            </g>
          </g>
          <g
             id="g114"
             transform="translate(56.693,109.899)" />
        </g>
      </g>
      <g
         id="g116">
        <g
           id="g118">
          <path
             d="M 42.43768,-170.0809 0,-150.79985 -42.43768,-170.0809 0,-189.36195 Z"
             style="fill:#ccded1;fill-opacity:1;fill-rule:nonzero;stroke:#005a19;stroke-width:0.3985;stroke-linecap:butt;stroke-linejoin:miter;stroke-miterlimit:10;stroke-dasharray:none;stroke-opacity:1"
             id="path120" />
        </g>
        <g
           id="g122"
           transform="translate(-9.295,-173.396)">
          <g
             id="g124">
            <g
               id="g126"
               transform="translate(-86.305,-276.136)">
              <text
                 transform="matrix(1,0,0,-1,86.305,276.136)"
                 style="font-variant:normal;font-weight:normal;font-size:9.96264px;font-family:LMRoman10;-inkscape-font-specification:LMRoman10-Regular;writing-mode:lr-tb;fill:#000000;fill-opacity:1;fill-rule:nonzero;stroke:none"
                 id="text130"><tspan
                   x="0 6.366127 10.789539 14.714819"
                   y="0"
                   id="tspan128">Test</tspan></text>
              <g
                 id="g132"
                 transform="translate(86.305,276.136)" />
            </g>
          </g>
          <g
             id="g134"
             transform="translate(9.295,173.396)" />
        </g>
      </g>
      <g
         id="g136">
        <g
           id="g138">
          <path
             d="m -60.01419,-240.94792 h 120.0284 v 28.34679 h -120.0284 z"
             style="fill:#cedbe3;fill-opacity:1;fill-rule:nonzero;stroke:#0c4c74;stroke-width:0.3985;stroke-linecap:butt;stroke-linejoin:miter;stroke-miterlimit:10;stroke-dasharray:none;stroke-opacity:1"
             id="path140" />
        </g>
        <g
           id="g142"
           transform="translate(-56.693,-224.162)">
          <g
             id="g144"
             transform="translate(8.726)">
            <g
               id="g146"
               transform="translate(-47.633,-225.37)">
              <text
                 transform="matrix(1,0,0,-1,47.633,225.37)"
                 style="font-variant:normal;font-weight:normal;font-size:9.96264px;font-family:LMRoman10;-inkscape-font-specification:LMRoman10-Regular;writing-mode:lr-tb;fill:#000000;fill-opacity:1;fill-rule:nonzero;stroke:none"
                 id="text150"><tspan
                   x="0 3.596513 9.1357412 13.061021 16.936487 20.841843 26.381071 30.804483 34.679951 37.449562 42.430885 47.970112 55.212952 59.636364 64.896637 69.320045 73.743462 79.282692 83.158157 87.581566 92.004982"
                   y="0"
                   id="tspan148">Instructionsexécutées</tspan></text>
              <text
                 transform="matrix(1,0,0,-1,46.518,213.415)"
                 style="font-variant:normal;font-weight:normal;font-size:9.96264px;font-family:LMRoman10;-inkscape-font-specification:LMRoman10-Regular;writing-mode:lr-tb;fill:#000000;fill-opacity:1;fill-rule:nonzero;stroke:none"
                 id="text154"><tspan
                   x="0 3.9252801 10.012453 12.782067 20.523039 24.398506 28.821917 32.747196 39.940224 43.845577 48.26899 52.144459 57.125778 62.665005 66.570358 72.109589 79.860519 86.515564 90.420921 95.402237"
                   y="0"
                   id="tspan152">siletestretourneVrai</tspan></text>
              <g
                 id="g156"
                 transform="translate(38.907,225.37)" />
            </g>
          </g>
          <g
             id="g158"
             transform="translate(56.693,224.162)" />
        </g>
      </g>
      <g
         id="g160">
        <g
           id="g162">
          <path
             d="m -60.01419,-297.64157 h 120.0284 v 28.34679 h -120.0284 z"
             style="fill:#cedbe3;fill-opacity:1;fill-rule:nonzero;stroke:#0c4c74;stroke-width:0.3985;stroke-linecap:butt;stroke-linejoin:miter;stroke-miterlimit:10;stroke-dasharray:none;stroke-opacity:1"
             id="path164" />
        </g>
        <g
           id="g166"
           transform="translate(-56.693,-279.998)">
          <g
             id="g168"
             transform="translate(5.573)">
            <g
               id="g170"
               transform="translate(-44.48,-169.534)">
              <text
                 transform="matrix(1,0,0,-1,44.48,169.534)"
                 style="font-variant:normal;font-weight:normal;font-size:9.96264px;font-family:LMRoman10;-inkscape-font-specification:LMRoman10-Regular;writing-mode:lr-tb;fill:#000000;fill-opacity:1;fill-rule:nonzero;stroke:none"
                 id="text174"><tspan
                   x="0 3.596513 9.1357412 13.061021 16.936487 20.841843 26.381071 30.804483 34.679951 37.449562 42.430885 51.28767 56.826897 59.596512 62.366127 67.905357 72.328766 76.234123 80.657532 88.956413 93.379822 98.919052"
                   y="0"
                   id="tspan172">Instructiond’incrémen-</tspan></text>
              <text
                 transform="matrix(1,0,0,-1,53.236,157.579)"
                 style="font-variant:normal;font-weight:normal;font-size:9.96264px;font-family:LMRoman10;-inkscape-font-specification:LMRoman10-Regular;writing-mode:lr-tb;fill:#000000;fill-opacity:1;fill-rule:nonzero;stroke:none"
                 id="text178"><tspan
                   x="0 3.8754671 8.8567867 12.732254 15.501868 20.483189 29.339975 34.879204 43.735989 48.159401 53.14072 61.439602 66.978828 70.854294 75.27771 80.816933"
                   y="0"
                   id="tspan176">tationducompteur</tspan></text>
              <g
                 id="g180"
                 transform="translate(38.907,169.534)" />
            </g>
          </g>
          <g
             id="g182"
             transform="translate(56.693,279.998)" />
        </g>
      </g>
      <g
         id="g184">
        <g
           id="g186">
          <path
             d="m -60.01419,-387.3163 h 120.0284 v 37.61537 h -120.0284 z"
             style="fill:#e6e6e6;fill-opacity:1;fill-rule:nonzero;stroke:#000000;stroke-width:0.3985;stroke-linecap:butt;stroke-linejoin:miter;stroke-miterlimit:10;stroke-dasharray:none;stroke-opacity:1"
             id="path188" />
        </g>
        <g
           id="g190"
           transform="translate(-56.693,-359.971)">
          <g
             id="g192"
             transform="translate(17.697)">
            <g
               id="g194"
               transform="translate(-56.604,-89.561)">
              <text
                 transform="matrix(1,0,0,-1,56.604,89.561)"
                 style="font-variant:normal;font-weight:normal;font-size:9.96264px;font-family:LMRoman10;-inkscape-font-specification:LMRoman10-Regular;writing-mode:lr-tb;fill:#000000;fill-opacity:1;fill-rule:nonzero;stroke:none"
                 id="text198"><tspan
                   x="0 3.596513 9.1357412 13.061021 16.936487 20.841843 26.381071 30.804483 34.679951 37.449562 42.430885 47.970112 55.212952 60.194271 65.733498 69.638855 74.062263"
                   y="0"
                   id="tspan196">Instructionsaprès</tspan></text>
              <text
                 transform="matrix(1,0,0,-1,57.061,77.606)"
                 style="font-variant:normal;font-weight:normal;font-size:9.96264px;font-family:LMRoman10;-inkscape-font-specification:LMRoman10-Regular;writing-mode:lr-tb;fill:#000000;fill-opacity:1;fill-rule:nonzero;stroke:none"
                 id="text202"><tspan
                   x="0 2.769614 11.068493 14.993773 18.86924 22.774595 28.313824 32.737236 36.612701 42.151928 46.057285 53.798256 56.567871 60.443336 64.866753 68.772102 73.753426"
                   y="0"
                   id="tspan200">lastructureitéra-</tspan></text>
              <text
                 transform="matrix(1,0,0,-1,55.743,65.651)"
                 style="font-variant:normal;font-weight:normal;font-size:9.96264px;font-family:LMRoman10;-inkscape-font-specification:LMRoman10-Regular;writing-mode:lr-tb;fill:#000000;fill-opacity:1;fill-rule:nonzero;stroke:none"
                 id="text206"><tspan
                   x="0 3.8754671 6.645081 11.626401 19.367373 23.790785 28.772104 34.311333 39.850559 42.620174 46.49564 49.265255 54.246574 59.785801 65.325027 69.748444 72.518059 75.287674"
                   y="0"
                   id="tspan204">tiveconditionnelle</tspan></text>
              <g
                 id="g208"
                 transform="translate(38.907,89.561)" />
            </g>
          </g>
          <g
             id="g210"
             transform="translate(56.693,359.971)" />
        </g>
      </g>
      <g
         id="g212">
        <g
           id="g214">
          <path
             d="m 38.53511,-411.02885 h -77.07022 c -2.20094,0 -3.98511,-1.78417 -3.98511,-3.98511 v -20.37657 c 0,-2.20095 1.78417,-3.98511 3.98511,-3.98511 h 77.07022 c 2.20094,0 3.98511,1.78416 3.98511,3.98511 v 20.37657 c 0,2.20094 -1.78417,3.98511 -3.98511,3.98511 z"
             style="fill:#edcccc;fill-opacity:1;fill-rule:nonzero;stroke:#a70002;stroke-width:0.3985;stroke-linecap:butt;stroke-linejoin:miter;stroke-miterlimit:10;stroke-dasharray:none;stroke-opacity:1"
             id="path216" />
        </g>
        <g
           id="g218"
           transform="translate(-7.408,-428.584)">
          <g
             id="g220">
            <g
               id="g222"
               transform="translate(-88.192,-20.948)">
              <text
                 transform="matrix(1,0,0,-1,88.192,20.948)"
                 style="font-variant:normal;font-weight:normal;font-size:9.96264px;font-family:LMRoman10;-inkscape-font-specification:LMRoman10-Regular;writing-mode:lr-tb;fill:#000000;fill-opacity:1;fill-rule:nonzero;stroke:none"
                 id="text226"><tspan
                   x="0 6.5056038 9.275218"
                   y="0"
                   id="tspan224">Fin</tspan></text>
              <g
                 id="g228"
                 transform="translate(88.192,20.948)" />
            </g>
          </g>
          <g
             id="g230"
             transform="translate(7.408,428.584)" />
        </g>
      </g>
      <g
         id="g232">
        <path
           d="M 0,-14.37263 V -35.17114"
           style="fill:none;stroke:#000000;stroke-width:0.79701;stroke-linecap:butt;stroke-linejoin:miter;stroke-miterlimit:10;stroke-dasharray:none;stroke-opacity:1"
           id="path234" />
        <g
           id="g236"
           transform="rotate(-90,-17.58557,-17.58557)">
          <g
             id="g238">
            <path
               d="M 2.59026,0 -1.55415,2.0722 0,0 -1.55415,-2.0722"
               style="fill:#000000;fill-opacity:1;fill-rule:nonzero;stroke:none"
               id="path240" />
          </g>
        </g>
      </g>
      <g
         id="g242">
        <path
           d="m 0,-75.62585 v -20.7985"
           style="fill:none;stroke:#000000;stroke-width:0.79701;stroke-linecap:butt;stroke-linejoin:miter;stroke-miterlimit:10;stroke-dasharray:none;stroke-opacity:1"
           id="path244" />
        <g
           id="g246"
           transform="rotate(-90,-48.212175,-48.212175)">
          <g
             id="g248">
            <path
               d="M 2.59026,0 -1.55415,2.0722 0,0 -1.55415,-2.0722"
               style="fill:#000000;fill-opacity:1;fill-rule:nonzero;stroke:none"
               id="path250" />
          </g>
        </g>
      </g>
      <g
         id="g252">
        <path
           d="M 0,-127.75992 V -147.928"
           style="fill:none;stroke:#000000;stroke-width:0.79701;stroke-linecap:butt;stroke-linejoin:miter;stroke-miterlimit:10;stroke-dasharray:none;stroke-opacity:1"
           id="path254" />
        <g
           id="g256"
           transform="rotate(-90,-73.964,-73.964)">
          <g
             id="g258">
            <path
               d="M 2.59026,0 -1.55415,2.0722 0,0 -1.55415,-2.0722"
               style="fill:#000000;fill-opacity:1;fill-rule:nonzero;stroke:none"
               id="path260" />
          </g>
        </g>
      </g>
      <g
         id="g262">
        <path
           d="m 0,-189.64374 v -20.16787"
           style="fill:none;stroke:#000000;stroke-width:0.79701;stroke-linecap:butt;stroke-linejoin:miter;stroke-miterlimit:10;stroke-dasharray:none;stroke-opacity:1"
           id="path264" />
        <g
           id="g266"
           transform="rotate(-90,-104.90581,-104.90581)">
          <g
             id="g268">
            <path
               d="M 2.59026,0 -1.55415,2.0722 0,0 -1.55415,-2.0722"
               style="fill:#000000;fill-opacity:1;fill-rule:nonzero;stroke:none"
               id="path270" />
          </g>
        </g>
        <g
           id="g272">
          <g
             id="g274"
             transform="translate(-22.021,-204.313)">
            <g
               id="g276">
              <g
                 id="g278"
                 transform="translate(-73.579,-245.219)">
                <text
                   transform="matrix(1,0,0,-1,73.579,245.219)"
                   style="font-variant:normal;font-weight:normal;font-size:9.96264px;font-family:LMRoman10;-inkscape-font-specification:LMRoman10-Regular;writing-mode:lr-tb;fill:#000000;fill-opacity:1;fill-rule:nonzero;stroke:none"
                   id="text282"><tspan
                     x="0 6.645081 10.550436 15.531755"
                     y="0"
                     id="tspan280">Vrai</tspan></text>
                <g
                   id="g284"
                   transform="translate(73.579,245.219)" />
              </g>
            </g>
            <g
               id="g286"
               transform="translate(22.021,204.313)" />
          </g>
        </g>
      </g>
      <g
         id="g288">
        <path
           d="m 0,-241.14719 v -25.35806"
           style="fill:none;stroke:#000000;stroke-width:0.79701;stroke-linecap:butt;stroke-linejoin:miter;stroke-miterlimit:10;stroke-dasharray:none;stroke-opacity:1"
           id="path290" />
        <g
           id="g292"
           transform="rotate(-90,-133.25262,-133.25262)">
          <g
             id="g294">
            <path
               d="M 2.59026,0 -1.55415,2.0722 0,0 -1.55415,-2.0722"
               style="fill:#000000;fill-opacity:1;fill-rule:nonzero;stroke:none"
               id="path296" />
          </g>
        </g>
      </g>
      <g
         id="g298">
        <path
           d="m 60.21346,-283.46817 h 28.3468 V -170.0809 H 45.30974"
           style="fill:none;stroke:#000000;stroke-width:0.79701;stroke-linecap:butt;stroke-linejoin:miter;stroke-miterlimit:10;stroke-dasharray:none;stroke-opacity:1"
           id="path300" />
        <g
           id="g302"
           transform="rotate(180,22.65487,-85.04045)">
          <g
             id="g304">
            <path
               d="M 2.59026,0 -1.55415,2.0722 0,0 -1.55415,-2.0722"
               style="fill:#000000;fill-opacity:1;fill-rule:nonzero;stroke:none"
               id="path306" />
          </g>
        </g>
      </g>
      <g
         id="g308">
        <path
           d="m -42.71947,-170.0809 h -42.5202 V -335.32828 H 0 v 0 -11.58312"
           style="fill:none;stroke:#000000;stroke-width:0.79701;stroke-linecap:butt;stroke-linejoin:miter;stroke-miterlimit:10;stroke-dasharray:none;stroke-opacity:1"
           id="path310" />
        <g
           id="g312"
           transform="rotate(-90,-173.4557,-173.4557)">
          <g
             id="g314">
            <path
               d="M 2.59026,0 -1.55415,2.0722 0,0 -1.55415,-2.0722"
               style="fill:#000000;fill-opacity:1;fill-rule:nonzero;stroke:none"
               id="path316" />
          </g>
        </g>
        <g
           id="g318">
          <g
             id="g320"
             transform="translate(-74.709,-166.25)">
            <g
               id="g322">
              <g
                 id="g324"
                 transform="translate(-20.891,-283.282)">
                <text
                   transform="matrix(1,0,0,-1,20.891,283.282)"
                   style="font-variant:normal;font-weight:normal;font-size:9.96264px;font-family:LMRoman10;-inkscape-font-specification:LMRoman10-Regular;writing-mode:lr-tb;fill:#000000;fill-opacity:1;fill-rule:nonzero;stroke:none"
                   id="text328"><tspan
                     x="0 5.6787047 10.660025 16.199253"
                     y="0"
                     id="tspan326">Faux</tspan></text>
                <g
                   id="g330"
                   transform="translate(20.891,283.282)" />
              </g>
            </g>
            <g
               id="g332"
               transform="translate(74.709,166.25)" />
          </g>
        </g>
      </g>
      <g
         id="g334">
        <path
           d="m 0,-387.51555 v -20.72378"
           style="fill:none;stroke:#000000;stroke-width:0.79701;stroke-linecap:butt;stroke-linejoin:miter;stroke-miterlimit:10;stroke-dasharray:none;stroke-opacity:1"
           id="path336" />
        <g
           id="g338"
           transform="rotate(-90,-204.11966,-204.11966)">
          <g
             id="g340">
            <path
               d="M 2.59026,0 -1.55415,2.0722 0,0 -1.55415,-2.0722"
               style="fill:#000000;fill-opacity:1;fill-rule:nonzero;stroke:none"
               id="path342" />
          </g>
        </g>
      </g>
    </g>
  </g>
</svg>
